<?xml version="1.0" encoding="UTF-8" standalone="no"?>
<!DOCTYPE svg PUBLIC "-//W3C//DTD SVG 1.1//EN" "http://www.w3.org/Graphics/SVG/1.1/DTD/svg11.dtd">
<svg width="100%" height="100%" viewBox="0 0 150 36" version="1.1" xmlns="http://www.w3.org/2000/svg" xmlns:xlink="http://www.w3.org/1999/xlink" xml:space="preserve" xmlns:serif="http://www.serif.com/" style="fill-rule:evenodd;clip-rule:evenodd;stroke-linejoin:round;stroke-miterlimit:2;">
    <g transform="matrix(1,0,0,1,-20.1628,-7.00741)">
        <g transform="matrix(1.28863,0,0,0.7503,9.3355,2.48393)">
            <path d="M96.95,43.042C91.743,45.635 85.257,47.968 78.066,49.982L22.671,49.982C15.888,44.911 10.744,37.739 10.73,30.026C10.717,22.308 15.841,15.115 22.612,10.019L78.034,10.019C84.843,11.946 91.021,14.159 96.085,16.577L95.936,16.556C90.763,16.556 86.563,22.522 86.563,29.872C86.563,37.221 90.763,43.188 95.936,43.188L96.95,43.042Z" style="fill:rgb(153,153,153);"/>
        </g>
        <g transform="matrix(7.33502,0,0,1.46121,-639.244,-19.2598)">
            <path d="M104.188,23.611C103.676,22.236 102.998,21.032 102.193,20.025C104.262,21.338 105.969,22.708 107.248,24.15C106.803,25.254 106.499,27.56 106.499,30.219C106.499,32.705 106.765,34.883 107.164,36.058C105.749,37.629 103.828,39.119 101.488,40.545C102.501,39.503 103.356,38.176 103.996,36.612C104.151,36.907 104.321,37.057 104.498,37.057C105.298,37.057 105.948,34.008 105.948,30.252C105.948,26.497 105.298,23.448 104.498,23.448C104.392,23.448 104.288,23.501 104.188,23.611Z" style="fill:rgb(153,153,153);"/>
        </g>
        <g transform="matrix(7.33502,0,0,1.46121,-639.244,-19.2598)">
            <path d="M109.01,26.579C109.624,27.718 109.946,28.889 109.944,30.072C109.942,31.212 109.639,32.341 109.064,33.448C109.17,32.493 109.229,31.39 109.229,30.219C109.229,28.872 109.151,27.615 109.01,26.579Z" style="fill:rgb(153,153,153);"/>
        </g>
    </g>
    <g transform="matrix(1,0,0,1,-60.1736,2.9832)">
        <g transform="matrix(1,0,0,1,11.1098,-0.110922)">
            <ellipse cx="105.174" cy="15.017" rx="10.011" ry="9.991" style="fill:rgb(102,102,102);"/>
        </g>
        <g transform="matrix(1,0,0,1,60.1736,-2.9832)">
            <path d="M104.818,8.234C110.081,10.923 113.036,14.056 113.036,17.382C113.036,21 109.54,24.388 103.403,27.23C99.34,25.858 96.45,22.211 96.45,17.937C96.45,13.179 100.035,9.196 104.818,8.234Z" style="fill:rgb(153,153,153);"/>
        </g>
        <g transform="matrix(1,0,0,1,60.1736,-2.9832)">
            <path d="M104.818,8.234C105.548,8.073 106.308,7.995 107.088,7.995C112.96,7.995 117.727,12.45 117.727,17.937C117.727,23.425 112.96,27.88 107.088,27.88C105.789,27.88 104.543,27.662 103.403,27.23C109.54,24.388 113.036,21 113.036,17.382C113.036,14.056 110.081,10.923 104.818,8.234Z" style="fill:rgb(153,153,153);"/>
        </g>
        <g transform="matrix(1,0,0,1,86.7788,-0.110922)">
            <path d="M100.657,6.149C106.011,7.304 110.349,8.487 113.58,9.698C114.613,11.212 115.185,13.048 115.185,15.017C115.185,16.728 114.753,18.34 113.972,19.735C110.581,21.042 105.901,22.331 100.037,23.549C97.11,21.832 95.163,18.65 95.163,15.017C95.163,11.132 97.389,7.762 100.657,6.149Z" style="fill:rgb(102,102,102);"/>
        </g>
        <g transform="matrix(1,0,0,1,48.7987,-0.0002)">
            <ellipse cx="105.174" cy="15.017" rx="10.011" ry="9.991" style="fill:rgb(102,102,102);"/>
        </g>
    </g>
    <g transform="matrix(1,0,0,1,-87.1182,2.87228)">
        <ellipse cx="105.174" cy="15.017" rx="10.011" ry="9.991" style="fill:rgb(102,102,102);"/>
    </g>
</svg>
