<?xml version="1.0" encoding="UTF-8" standalone="no"?>
<!DOCTYPE svg PUBLIC "-//W3C//DTD SVG 1.1//EN" "http://www.w3.org/Graphics/SVG/1.1/DTD/svg11.dtd">
<svg width="100%" height="100%" viewBox="0 0 190 60" version="1.1" xmlns="http://www.w3.org/2000/svg" xmlns:xlink="http://www.w3.org/1999/xlink" xml:space="preserve" xmlns:serif="http://www.serif.com/" style="fill-rule:evenodd;clip-rule:evenodd;stroke-linejoin:round;stroke-miterlimit:2;">
    <g transform="matrix(1.31459,0,0,0.900154,-4.07665,2.9323)">
        <path d="M134.514,35.027C124.141,43.622 110.031,49.958 94.942,49.947L94.942,49.982L22.671,49.982C15.888,44.911 10.744,37.739 10.73,30.026C10.717,22.308 15.841,15.115 22.612,10.019L95.418,10.019C113.177,10.16 129.537,18.98 139.978,29.842L139.998,29.883L134.514,35.027Z" style="fill:rgb(153,153,153);"/>
    </g>
    <g transform="matrix(1,0,0,1,4.46241,14.9831)">
        <ellipse cx="105.174" cy="15.017" rx="10.011" ry="9.991" style="fill:rgb(102,102,102);"/>
    </g>
    <g transform="matrix(1,0,0,1,-34.5376,14.9831)">
        <ellipse cx="105.174" cy="15.017" rx="10.011" ry="9.991" style="fill:rgb(102,102,102);"/>
    </g>
    <g transform="matrix(1,0,0,1,-75.5376,14.9831)">
        <ellipse cx="105.174" cy="15.017" rx="10.011" ry="9.991" style="fill:rgb(102,102,102);"/>
    </g>
    <g transform="matrix(1,0,0,1,44.4624,14.9831)">
        <ellipse cx="105.174" cy="15.017" rx="10.011" ry="9.991" style="fill:rgb(102,102,102);"/>
    </g>
</svg>
