<?xml version="1.0" encoding="UTF-8" standalone="no"?>
<!DOCTYPE svg PUBLIC "-//W3C//DTD SVG 1.1//EN" "http://www.w3.org/Graphics/SVG/1.1/DTD/svg11.dtd">
<svg width="100%" height="100%" viewBox="0 0 112 36" version="1.1" xmlns="http://www.w3.org/2000/svg" xmlns:xlink="http://www.w3.org/1999/xlink" xml:space="preserve" xmlns:serif="http://www.serif.com/" style="fill-rule:evenodd;clip-rule:evenodd;stroke-linejoin:round;stroke-miterlimit:2;">
    <g transform="matrix(1.06836,0,0,0.752001,-40.4103,-4.54153)">
        <path d="M128.116,10.019C134.814,15.108 139.865,22.253 139.851,29.915C139.837,37.685 134.619,44.904 127.762,49.982L52.691,49.982C45.834,44.904 40.616,37.685 40.602,29.915C40.588,22.253 45.639,15.108 52.337,10.019L128.116,10.019Z" style="fill:rgb(153,153,153);"/>
    </g>
    <g transform="matrix(1,0,0,1,-11.19,3.00157)">
        <ellipse cx="105.174" cy="15.017" rx="10.011" ry="9.991" style="fill:rgb(102,102,102);"/>
    </g>
    <g transform="matrix(1,0,0,1,-49.1896,3.00157)">
        <ellipse cx="105.174" cy="15.017" rx="10.011" ry="9.991" style="fill:rgb(102,102,102);"/>
    </g>
    <g transform="matrix(1,0,0,1,-87.1672,3.00157)">
        <ellipse cx="105.174" cy="15.017" rx="10.011" ry="9.991" style="fill:rgb(102,102,102);"/>
    </g>
</svg>
