<?xml version="1.0" encoding="UTF-8" standalone="no"?>
<!DOCTYPE svg PUBLIC "-//W3C//DTD SVG 1.1//EN" "http://www.w3.org/Graphics/SVG/1.1/DTD/svg11.dtd">
<svg width="100%" height="100%" viewBox="0 0 112 36" version="1.1" xmlns="http://www.w3.org/2000/svg" xmlns:xlink="http://www.w3.org/1999/xlink" xml:space="preserve" xmlns:serif="http://www.serif.com/" style="fill-rule:evenodd;clip-rule:evenodd;stroke-linejoin:round;stroke-miterlimit:2;">
    <g transform="matrix(1,0,0,1,-39.1628,-7.00741)">
        <g transform="matrix(1.06806,0,0,0.7503,30.7195,2.48393)">
            <path d="M96.95,43.042C91.743,45.635 85.257,47.968 78.066,49.982L22.671,49.982C15.888,44.911 10.744,37.739 10.73,30.026C10.717,22.308 15.841,15.115 22.612,10.019L78.034,10.019C84.843,11.946 91.021,14.159 96.085,16.577L95.936,16.556C90.763,16.556 86.563,22.522 86.563,29.872C86.563,37.221 90.763,43.188 95.936,43.188L96.95,43.042Z" style="fill:rgb(153,153,153);"/>
        </g>
        <g transform="matrix(1.06806,0,0,0.7503,30.7195,2.48393)">
            <path d="M102.193,20.025C107.079,23.126 109.95,26.546 109.944,30.072C109.937,33.758 106.785,37.318 101.488,40.545C103.812,38.153 105.309,34.259 105.309,29.872C105.309,25.953 104.115,22.428 102.193,20.025Z" style="fill:rgb(153,153,153);"/>
        </g>
    </g>
    <g transform="matrix(1,0,0,1,-11.1517,2.87228)">
        <path d="M105.334,5.042C107.773,5.859 109.97,6.707 111.857,7.629C113.91,9.432 115.185,12.077 115.185,15.017C115.185,18.308 113.587,21.23 111.104,23.025L110.391,23.365L106.257,24.899L105.174,25.008C99.649,25.008 95.163,20.531 95.163,15.017C95.163,9.503 99.649,5.026 105.174,5.026L105.334,5.042Z" style="fill:rgb(102,102,102);"/>
    </g>
    <g transform="matrix(1,0,0,1,-49.174,2.87228)">
        <ellipse cx="105.174" cy="15.017" rx="10.011" ry="9.991" style="fill:rgb(102,102,102);"/>
    </g>
    <g transform="matrix(1,0,0,1,-87.1881,2.87228)">
        <ellipse cx="105.174" cy="15.017" rx="10.011" ry="9.991" style="fill:rgb(102,102,102);"/>
    </g>
</svg>
