<?xml version="1.0" encoding="UTF-8" standalone="no"?>
<!DOCTYPE svg PUBLIC "-//W3C//DTD SVG 1.1//EN" "http://www.w3.org/Graphics/SVG/1.1/DTD/svg11.dtd">
<svg width="100%" height="100%" viewBox="0 0 188 36" version="1.1" xmlns="http://www.w3.org/2000/svg" xmlns:xlink="http://www.w3.org/1999/xlink" xml:space="preserve" xmlns:serif="http://www.serif.com/" style="fill-rule:evenodd;clip-rule:evenodd;stroke-linejoin:round;stroke-miterlimit:2;">
    <g transform="matrix(1.13728,0,0,0.751167,-14.2455,-0.759376)">
        <path d="M175.177,15.017C175.177,9.503 170.7,5.026 165.186,5.026L25.14,5.026C19.626,5.026 15.149,9.503 15.149,15.017L15.149,34.998C15.149,40.512 19.626,44.989 25.14,44.989L165.186,44.989C170.7,44.989 175.177,40.512 175.177,34.998L175.177,15.017Z" style="fill:rgb(153,153,153);"/>
    </g>
    <g transform="matrix(1,0,0,1,-11.1927,2.983)">
        <ellipse cx="105.174" cy="15.017" rx="10.011" ry="9.991" style="fill:rgb(102,102,102);"/>
    </g>
    <g transform="matrix(1,0,0,1,-49.1726,2.983)">
        <ellipse cx="105.174" cy="15.017" rx="10.011" ry="9.991" style="fill:rgb(102,102,102);"/>
    </g>
    <g transform="matrix(1,0,0,1,-87.1498,2.983)">
        <ellipse cx="105.174" cy="15.017" rx="10.011" ry="9.991" style="fill:rgb(102,102,102);"/>
    </g>
    <g transform="matrix(1,0,0,1,26.8145,2.983)">
        <ellipse cx="105.174" cy="15.017" rx="10.011" ry="9.991" style="fill:rgb(102,102,102);"/>
    </g>
    <g transform="matrix(1,0,0,1,64.7949,2.983)">
        <ellipse cx="105.174" cy="15.017" rx="10.011" ry="9.991" style="fill:rgb(102,102,102);"/>
    </g>
</svg>
